<svg id="Capa_1" enable-background="new 0 0 512 512" height="512" viewBox="0 0 512 512" width="512" xmlns="http://www.w3.org/2000/svg"><g><g><path d="m401.284 311.278 45.034 55.139c1.832 2.243 2.832 5.049 2.832 7.944v46.872c0 3.743-4.107 6.034-7.292 4.067l-15.469-9.552c-1.539-.951-3.484-.951-5.023 0l-15.469 9.552c-3.185 1.967-7.292-.324-7.292-4.067v-38.911c0-2.965-1.049-5.834-2.961-8.1l-30.282-35.884z" fill="#ade194"/></g><g><path d="m449.15 374.366v46.871c0 3.744-4.101 6.026-7.288 4.059l-13.545-8.36v-39.194c0-2.892-1.01-5.7-2.839-7.94l-38.805-47.523 14.607-11 45.041 55.137c1.829 2.239 2.829 5.047 2.829 7.95z" fill="#97da7b"/></g><g><path d="m355.72 311.278-45.034 55.139c-1.832 2.243-2.832 5.049-2.832 7.944v46.872c0 3.743 4.107 6.034 7.292 4.067l15.469-9.552c1.539-.951 3.484-.951 5.023 0l15.469 9.552c3.185 1.967 7.292-.324 7.292-4.067v-38.911c0-2.965 1.049-5.834 2.961-8.1l30.282-35.884z" fill="#ade194"/></g><g><path d="m391.647 338.337-30.287 35.881c-1.914 2.272-2.966 5.142-2.966 8.108v38.91c0 3.744-4.101 6.026-7.288 4.059l-13.534-8.35v-34.62c0-2.966 1.052-5.837 2.966-8.108l39.615-44.536z" fill="#97da7b"/></g><path d="m378.502 137.445c10.607 0 19.207-8.599 19.207-19.206v-99.032c-.001-10.608-8.6-19.207-19.207-19.207-10.607 0-19.206 8.599-19.206 19.206v99.032c0 10.608 8.599 19.207 19.206 19.207z" fill="#ade194"/><path d="m397.705 19.202v99.033c0 10.614-8.598 19.212-19.202 19.212-3.497 0-6.778-.936-9.606-2.571 5.739-3.322 9.606-9.524 9.606-16.641v-99.033c0-7.107-3.867-13.309-9.606-16.631 2.828-1.635 6.109-2.571 9.606-2.571 10.604 0 19.202 8.598 19.202 19.202z" fill="#97da7b"/><path d="m254.929 239.808 34.764 34.764 25.977 19.34 18.428 25.064 34.764 34.764c5.324 5.324 13.957 5.324 19.281 0l34.764-34.764 19.945-26.246 24.459-18.159 34.764-34.764c5.324-5.324 5.324-13.957 0-19.281l-34.764-34.764-28.483-19.033-15.921-25.371-34.764-34.764c-5.324-5.324-13.957-5.324-19.281 0l-34.764 34.764-16.459 28.482-27.946 15.923-34.764 34.764c-5.325 5.324-5.325 13.957 0 19.281z" fill="#80d261"/><path d="m502.078 239.81-34.764 34.764-24.462 18.157-19.943 26.248-34.764 34.764c-5.321 5.321-13.955 5.321-19.287 0l-5.5-5.5c3.207-.021 6.425-1.262 8.865-3.702l105.447-105.446c4.932-4.932 4.932-12.924 0-17.846l-105.447-105.457c-2.45-2.45-5.668-3.681-8.876-3.691l5.51-5.511c5.332-5.321 13.966-5.321 19.287 0l34.765 34.765 17.973 27.343 26.431 17.061 34.763 34.764c5.323 5.332 5.323 13.966.002 19.287z" fill="#68ca44"/><path d="m391.508 154.364h62.798v62.798h-62.798z" fill="#ade194" transform="matrix(-.707 -.707 .707 -.707 590.593 616.157)"/><path d="m467.311 185.757v.01l-12.556 12.556-44.41-44.399 12.566-12.567z" fill="#97da7b"/><path d="m391.508 243.173h62.798v62.798h-62.798z" fill="#ade194" transform="matrix(-.707 -.707 .707 -.707 527.795 767.764)"/><path d="m467.311 274.577-44.4 44.4-12.566-12.557 44.41-44.41z" fill="#97da7b"/><path d="m302.699 154.364h62.798v62.798h-62.798z" fill="#ade194" transform="matrix(-.707 -.707 .707 -.707 438.986 553.359)"/><path d="m302.699 243.173h62.798v62.798h-62.798z" fill="#ade194" transform="matrix(-.707 -.707 .707 -.707 376.188 704.966)"/><g><path d="m159.8 379.524 51.994 63.661c2.115 2.589 3.27 5.829 3.27 9.172v54.116c0 4.321-4.742 6.966-8.419 4.696l-17.86-11.028c-1.777-1.097-4.022-1.097-5.799 0l-17.86 11.028c-3.677 2.27-8.419-.374-8.419-4.696v-44.924c0-3.423-1.211-6.736-3.419-9.352l-34.962-41.43z" fill="#ade194"/></g><g><path d="m215.064 452.362v54.115c0 4.322-4.735 6.957-8.414 4.687l-15.638-9.653v-45.251c0-3.339-1.166-6.581-3.278-9.167l-44.802-54.868 16.865-12.7 52.002 63.658c2.111 2.586 3.265 5.828 3.265 9.179z" fill="#97da7b"/></g><g><path d="m107.195 379.524-51.994 63.661c-2.115 2.589-3.27 5.829-3.27 9.172v54.116c0 4.321 4.742 6.966 8.419 4.696l17.86-11.028c1.777-1.097 4.022-1.097 5.799 0l17.86 11.028c3.677 2.27 8.419-.374 8.419-4.696v-44.924c0-3.423 1.211-6.736 3.419-9.352l34.962-41.43z" fill="#ade194"/></g><g><path d="m148.674 410.765-34.968 41.427c-2.21 2.623-3.424 5.937-3.424 9.361v44.924c0 4.322-4.735 6.957-8.414 4.687l-15.626-9.64v-39.97c0-3.424 1.214-6.739 3.424-9.361l45.737-51.419z" fill="#97da7b"/></g><path d="m133.498 205.691c10.607 0 19.206-8.599 19.206-19.206v-167.278c0-10.608-8.599-19.207-19.206-19.207-10.607 0-19.206 8.599-19.206 19.206v167.277c-.001 10.609 8.598 19.208 19.206 19.208z" fill="#ade194"/><path d="m152.709 19.202v167.283c0 10.604-8.608 19.202-19.212 19.202-3.497 0-6.767-.936-9.596-2.571 5.739-3.322 9.596-9.524 9.596-16.631v-167.283c0-7.107-3.857-13.309-9.596-16.631 2.829-1.635 6.099-2.571 9.596-2.571 10.604 0 19.212 8.598 19.212 19.202z" fill="#97da7b"/><path d="m9.925 308.054 34.764 34.764 29.61 13.307 14.795 31.097 34.764 34.764c5.324 5.324 13.957 5.324 19.281 0l34.764-34.764 15.921-29.488 28.483-14.916 34.764-34.764c5.324-5.324 5.324-13.957 0-19.281l-34.764-34.764-25.945-17.978-18.46-26.426-34.764-34.764c-5.324-5.324-13.957-5.324-19.281 0l-34.764 34.764-18.732 28.482-25.672 15.923-34.764 34.763c-5.325 5.324-5.325 13.957 0 19.281z" fill="#80d261"/><path d="m257.074 308.056-34.764 34.764-28.486 14.914-15.919 29.491-34.764 34.764c-5.321 5.321-13.955 5.321-19.287 0l-5.5-5.5c3.208-.021 6.425-1.262 8.865-3.702l105.447-105.447c4.932-4.932 4.932-12.924 0-17.846l-105.447-105.456c-2.45-2.45-5.668-3.681-8.876-3.691l5.511-5.511c5.332-5.321 13.966-5.321 19.287 0l34.765 34.765 18.457 26.429 25.948 17.975 34.764 34.764c5.32 5.332 5.32 13.966-.001 19.287z" fill="#68ca44"/><path d="m146.503 222.61h62.798v62.798h-62.798z" fill="#ade194" transform="matrix(-.707 -.707 .707 -.707 124.087 559.416)"/><path d="m222.307 254.002v.011l-12.557 12.556-44.41-44.399 12.567-12.567z" fill="#97da7b"/><path d="m146.503 311.419h62.798v62.798h-62.798z" fill="#ade194" transform="matrix(-.707 -.707 .707 -.707 61.289 711.023)"/><path d="m222.307 342.823-44.4 44.399-12.567-12.556 44.41-44.41z" fill="#97da7b"/><g fill="#ade194"><path d="m57.694 222.61h62.798v62.798h-62.798z" transform="matrix(-.707 -.707 .707 -.707 -27.52 496.618)"/><path d="m57.694 311.419h62.798v62.798h-62.798z" transform="matrix(-.707 -.707 .707 -.707 -90.318 648.225)"/></g></g></svg>